<svg width="32" height="22" viewBox="0 0 32 22" fill="none" xmlns="http://www.w3.org/2000/svg">
<path d="M7.08629 1.22815C7.68247 -0.30236 9.77208 -0.302357 10.3683 1.22816L17.324 19.085C17.7939 20.2913 16.9376 21.6075 15.683 21.6075H1.77156C0.516934 21.6075 -0.339312 20.2913 0.130583 19.085L7.08629 1.22815Z" fill="url(#paint0_linear_37_593)"/>
<path d="M31.8846 5.90269C32.0117 6.5981 31.4269 7.17576 30.72 7.17576H24.7273C26.1657 7.17576 27.5718 7.59661 28.7678 8.38509C29.9638 9.17358 30.8959 10.2943 31.4464 11.6055C31.9969 12.9167 32.1409 14.3595 31.8603 15.7514C31.5796 17.1434 30.887 18.422 29.8699 19.4255C28.8528 20.4291 27.5569 21.1125 26.1461 21.3894C24.7353 21.6663 23.273 21.5242 21.9441 20.9811C20.6152 20.4379 19.4794 19.5182 18.6802 18.3382C18.1226 17.5147 17.7464 16.5903 17.5699 15.6246C17.4428 14.9292 18.0276 14.3515 18.7345 14.3515L24.7273 14.3515C23.2889 14.3515 21.8828 13.9307 20.6868 13.1422C19.4908 12.3537 18.5586 11.233 18.0081 9.9218C17.4577 8.6106 17.3137 7.1678 17.5943 5.77584C17.8749 4.38388 18.5676 3.10528 19.5847 2.10173C20.6018 1.09819 21.8977 0.414761 23.3084 0.137883C24.7192 -0.138995 26.1815 0.0031092 27.5104 0.546225C28.8393 1.08934 29.9752 2.00908 30.7743 3.18912C31.332 4.01257 31.7082 4.93696 31.8846 5.90269Z" fill="url(#paint1_linear_37_593)"/>
<defs>
<linearGradient id="paint0_linear_37_593" x1="0.18754" y1="9.49505" x2="31.941" y2="9.77351" gradientUnits="userSpaceOnUse">
<stop stop-color="#E65053"/>
<stop offset="1" stop-color="#FABC3C"/>
</linearGradient>
<linearGradient id="paint1_linear_37_593" x1="0.18754" y1="9.49505" x2="31.941" y2="9.77351" gradientUnits="userSpaceOnUse">
<stop stop-color="#E65053"/>
<stop offset="1" stop-color="#FABC3C"/>
</linearGradient>
</defs>
</svg>
