<svg width="83" height="56" viewBox="0 0 83 56" fill="none" xmlns="http://www.w3.org/2000/svg">
<path d="M18.3655 3.18299C19.9106 -0.783623 25.3262 -0.783614 26.8713 3.183L44.8983 49.4623C46.1161 52.5887 43.897 56 40.6454 56H4.59133C1.33973 56 -0.879392 52.5887 0.33843 49.4623L18.3655 3.18299Z" fill="url(#paint0_linear_34_590)"/>
<path d="M82.635 15.2979C82.9643 17.1002 81.4488 18.5973 79.6167 18.5973H64.0854C67.8133 18.5973 71.4575 19.688 74.5571 21.7315C77.6568 23.775 80.0726 26.6796 81.4993 30.0778C82.9259 33.476 83.2991 37.2153 82.5718 40.8228C81.8446 44.4303 80.0494 47.7441 77.4134 50.3449C74.7773 52.9458 71.4188 54.7171 67.7626 55.4346C64.1063 56.1522 60.3164 55.7839 56.8723 54.3763C53.4282 52.9688 50.4844 50.5851 48.4133 47.5268C46.9681 45.3927 45.993 42.9969 45.5357 40.4941C45.2064 38.6918 46.722 37.1947 48.5541 37.1947L64.0854 37.1947C60.3575 37.1947 56.7133 36.1039 53.6136 34.0604C50.514 32.0169 48.0981 29.1124 46.6715 25.7142C45.2449 22.316 44.8716 18.5767 45.5989 14.9692C46.3262 11.3616 48.1213 8.04792 50.7574 5.44704C53.3934 2.84616 56.7519 1.07493 60.4082 0.357351C64.0645 -0.360231 67.8543 0.00805804 71.2984 1.41565C74.7426 2.82323 77.6863 5.2069 79.7574 8.26521C81.2027 10.3993 82.1777 12.7951 82.635 15.2979Z" fill="url(#paint1_linear_34_590)"/>
<defs>
<linearGradient id="paint0_linear_34_590" x1="0.486046" y1="24.6082" x2="82.781" y2="25.3299" gradientUnits="userSpaceOnUse">
<stop stop-color="#E65053"/>
<stop offset="1" stop-color="#FABC3C"/>
</linearGradient>
<linearGradient id="paint1_linear_34_590" x1="0.486046" y1="24.6082" x2="82.781" y2="25.3299" gradientUnits="userSpaceOnUse">
<stop stop-color="#E65053"/>
<stop offset="1" stop-color="#FABC3C"/>
</linearGradient>
</defs>
</svg>
